<svg xmlns="http://www.w3.org/2000/svg" width="2330" height="3295" viewBox="0 0 2330 3295" role="img" aria-label="Population Multi-omics &amp; Disease Targets hypothesis lineage">
<rect width="2330" height="3295" fill="#101512"/>
<text x="35" y="45" fill="#eef2e5" font-family="Georgia" font-size="29">Population Multi-omics &amp; Disease Targets</text>
<text x="36" y="73" fill="#abbc9b" font-family="sans-serif" font-size="13">115 hypotheses and starting questions · actual parent links · anonymous review view</text>
<text x="35" y="132.0" fill="#b9cca9" font-family="sans-serif" font-size="12">UK Biobank</text>
<path d="M239.0,2813.2 C315.0,2813.2 335.0,2872.1 411.0,2872.1" fill="none" stroke="#5d7558" stroke-width="1.1"/>
<path d="M239.0,2813.2 C315.0,2813.2 335.0,2963.0 411.0,2963.0" fill="none" stroke="#5d7558" stroke-width="1.1"/>
<path d="M239.0,2813.2 C315.0,2813.2 335.0,2571.0 411.0,2571.0" fill="none" stroke="#5d7558" stroke-width="1.1"/>
<path d="M429.0,2872.1 C505.0,2872.1 525.0,2872.1 601.0,2872.1" fill="none" stroke="#5d7558" stroke-width="1.1"/>
<path d="M239.0,2813.2 C315.0,2813.2 335.0,3061.0 411.0,3061.0" fill="none" stroke="#5d7558" stroke-width="1.1"/>
<path d="M239.0,2813.2 C315.0,2813.2 335.0,2599.0 411.0,2599.0" fill="none" stroke="#5d7558" stroke-width="1.1"/>
<path d="M619.0,2872.1 C695.0,2872.1 715.0,2879.0 791.0,2879.0" fill="none" stroke="#5d7558" stroke-width="1.1"/>
<path d="M619.0,2872.1 C695.0,2872.1 715.0,2935.0 791.0,2935.0" fill="none" stroke="#5d7558" stroke-width="1.1"/>
<path d="M619.0,2872.1 C695.0,2872.1 715.0,2767.4 791.0,2767.4" fill="none" stroke="#5d7558" stroke-width="1.1"/>
<path d="M619.0,2872.1 C695.0,2872.1 715.0,2907.0 791.0,2907.0" fill="none" stroke="#5d7558" stroke-width="1.1"/>
<path d="M809.0,2767.4 C885.0,2767.4 905.0,2837.0 981.0,2837.0" fill="none" stroke="#5d7558" stroke-width="1.1"/>
<path d="M999.0,2837.0 C1075.0,2837.0 1095.0,2823.0 1171.0,2823.0" fill="none" stroke="#5d7558" stroke-width="1.1"/>
<path d="M999.0,2837.0 C1075.0,2837.0 1095.0,2851.0 1171.0,2851.0" fill="none" stroke="#5d7558" stroke-width="1.1"/>
<path d="M809.0,2767.4 C885.0,2767.4 905.0,2670.2 981.0,2670.2" fill="none" stroke="#5d7558" stroke-width="1.1"/>
<path d="M809.0,2767.4 C885.0,2767.4 905.0,2795.0 981.0,2795.0" fill="none" stroke="#5d7558" stroke-width="1.1"/>
<path d="M999.0,2670.2 C1075.0,2670.2 1095.0,2713.3 1171.0,2713.3" fill="none" stroke="#5d7558" stroke-width="1.1"/>
<path d="M999.0,2670.2 C1075.0,2670.2 1095.0,2627.0 1171.0,2627.0" fill="none" stroke="#5d7558" stroke-width="1.1"/>
<path d="M1189.0,2713.3 C1265.0,2713.3 1285.0,2713.3 1361.0,2713.3" fill="none" stroke="#5d7558" stroke-width="1.1"/>
<path d="M1379.0,2713.3 C1455.0,2713.3 1475.0,2655.0 1551.0,2655.0" fill="none" stroke="#5d7558" stroke-width="1.1"/>
<path d="M1379.0,2713.3 C1455.0,2713.3 1475.0,2718.0 1551.0,2718.0" fill="none" stroke="#5d7558" stroke-width="1.1"/>
<path d="M1379.0,2713.3 C1455.0,2713.3 1475.0,2767.0 1551.0,2767.0" fill="none" stroke="#5d7558" stroke-width="1.1"/>
<path d="M1569.0,2718.0 C1645.0,2718.0 1665.0,2718.0 1741.0,2718.0" fill="none" stroke="#5d7558" stroke-width="1.1"/>
<path d="M239.0,1509.0 C315.0,1509.0 335.0,1523.0 411.0,1523.0" fill="none" stroke="#5d7558" stroke-width="1.1"/>
<path d="M239.0,1509.0 C315.0,1509.0 335.0,1551.0 411.0,1551.0" fill="none" stroke="#5d7558" stroke-width="1.1"/>
<path d="M1759.0,2718.0 C1835.0,2718.0 1855.0,2739.0 1931.0,2739.0" fill="none" stroke="#5d7558" stroke-width="1.1"/>
<path d="M1759.0,2718.0 C1835.0,2718.0 1855.0,2697.0 1931.0,2697.0" fill="none" stroke="#5d7558" stroke-width="1.1"/>
<path d="M1949.0,2697.0 C2025.0,2697.0 2045.0,2683.0 2121.0,2683.0" fill="none" stroke="#5d7558" stroke-width="1.1"/>
<path d="M1949.0,2697.0 C2025.0,2697.0 2045.0,2711.0 2121.0,2711.0" fill="none" stroke="#5d7558" stroke-width="1.1"/>
<path d="M429.0,1523.0 C505.0,1523.0 525.0,1523.0 601.0,1523.0" fill="none" stroke="#5d7558" stroke-width="1.1"/>
<path d="M429.0,3061.0 C505.0,3061.0 525.0,3103.0 601.0,3103.0" fill="none" stroke="#5d7558" stroke-width="1.1"/>
<path d="M429.0,3061.0 C505.0,3061.0 525.0,3131.0 601.0,3131.0" fill="none" stroke="#5d7558" stroke-width="1.1"/>
<path d="M429.0,3061.0 C505.0,3061.0 525.0,3075.0 601.0,3075.0" fill="none" stroke="#5d7558" stroke-width="1.1"/>
<path d="M429.0,3061.0 C505.0,3061.0 525.0,2991.0 601.0,2991.0" fill="none" stroke="#5d7558" stroke-width="1.1"/>
<path d="M429.0,3061.0 C505.0,3061.0 525.0,3047.0 601.0,3047.0" fill="none" stroke="#5d7558" stroke-width="1.1"/>
<path d="M429.0,3061.0 C505.0,3061.0 525.0,3019.0 601.0,3019.0" fill="none" stroke="#5d7558" stroke-width="1.1"/>
<path d="M239.0,1509.0 C315.0,1509.0 335.0,1467.0 411.0,1467.0" fill="none" stroke="#5d7558" stroke-width="1.1"/>
<path d="M239.0,1509.0 C315.0,1509.0 335.0,1495.0 411.0,1495.0" fill="none" stroke="#5d7558" stroke-width="1.1"/>
<path d="M239.0,865.0 C315.0,865.0 335.0,879.0 411.0,879.0" fill="none" stroke="#5d7558" stroke-width="1.1"/>
<path d="M239.0,865.0 C315.0,865.0 335.0,851.0 411.0,851.0" fill="none" stroke="#5d7558" stroke-width="1.1"/>
<path d="M239.0,3171.0 C315.0,3171.0 335.0,3171.0 411.0,3171.0" fill="none" stroke="#5d7558" stroke-width="1.1"/>
<path d="M239.0,1819.0 C315.0,1819.0 335.0,1847.0 411.0,1847.0" fill="none" stroke="#5d7558" stroke-width="1.1"/>
<path d="M239.0,1819.0 C315.0,1819.0 335.0,1791.0 411.0,1791.0" fill="none" stroke="#5d7558" stroke-width="1.1"/>
<path d="M239.0,1819.0 C315.0,1819.0 335.0,1819.0 411.0,1819.0" fill="none" stroke="#5d7558" stroke-width="1.1"/>
<path d="M239.0,1918.5 C315.0,1918.5 335.0,1887.0 411.0,1887.0" fill="none" stroke="#5d7558" stroke-width="1.1"/>
<path d="M239.0,1918.5 C315.0,1918.5 335.0,1950.0 411.0,1950.0" fill="none" stroke="#5d7558" stroke-width="1.1"/>
<path d="M429.0,1950.0 C505.0,1950.0 525.0,1950.0 601.0,1950.0" fill="none" stroke="#5d7558" stroke-width="1.1"/>
<path d="M619.0,1950.0 C695.0,1950.0 715.0,1971.0 791.0,1971.0" fill="none" stroke="#5d7558" stroke-width="1.1"/>
<path d="M619.0,1950.0 C695.0,1950.0 715.0,1929.0 791.0,1929.0" fill="none" stroke="#5d7558" stroke-width="1.1"/>
<path d="M809.0,1929.0 C885.0,1929.0 905.0,1915.0 981.0,1915.0" fill="none" stroke="#5d7558" stroke-width="1.1"/>
<path d="M809.0,1929.0 C885.0,1929.0 905.0,1943.0 981.0,1943.0" fill="none" stroke="#5d7558" stroke-width="1.1"/>
<path d="M239.0,1373.0 C315.0,1373.0 335.0,1387.0 411.0,1387.0" fill="none" stroke="#5d7558" stroke-width="1.1"/>
<path d="M239.0,1373.0 C315.0,1373.0 335.0,1359.0 411.0,1359.0" fill="none" stroke="#5d7558" stroke-width="1.1"/>
<path d="M239.0,508.0 C315.0,508.0 335.0,543.0 411.0,543.0" fill="none" stroke="#5d7558" stroke-width="1.1"/>
<path d="M239.0,508.0 C315.0,508.0 335.0,431.0 411.0,431.0" fill="none" stroke="#5d7558" stroke-width="1.1"/>
<path d="M239.0,508.0 C315.0,508.0 335.0,571.0 411.0,571.0" fill="none" stroke="#5d7558" stroke-width="1.1"/>
<path d="M239.0,508.0 C315.0,508.0 335.0,487.0 411.0,487.0" fill="none" stroke="#5d7558" stroke-width="1.1"/>
<path d="M429.0,487.0 C505.0,487.0 525.0,487.0 601.0,487.0" fill="none" stroke="#5d7558" stroke-width="1.1"/>
<path d="M619.0,487.0 C695.0,487.0 715.0,487.0 791.0,487.0" fill="none" stroke="#5d7558" stroke-width="1.1"/>
<path d="M809.0,487.0 C885.0,487.0 905.0,487.0 981.0,487.0" fill="none" stroke="#5d7558" stroke-width="1.1"/>
<path d="M999.0,487.0 C1075.0,487.0 1095.0,487.0 1171.0,487.0" fill="none" stroke="#5d7558" stroke-width="1.1"/>
<path d="M1189.0,487.0 C1265.0,487.0 1285.0,515.0 1361.0,515.0" fill="none" stroke="#5d7558" stroke-width="1.1"/>
<path d="M1189.0,487.0 C1265.0,487.0 1285.0,459.0 1361.0,459.0" fill="none" stroke="#5d7558" stroke-width="1.1"/>
<path d="M1189.0,487.0 C1265.0,487.0 1285.0,487.0 1361.0,487.0" fill="none" stroke="#5d7558" stroke-width="1.1"/>
<g><title>D4-0747ABFE3A · 绝经相关脂蛋白变化是否超出体重变化</title><circle cx="230.0" cy="151.0" r="8" fill="#c8e2a9"/><text x="245.0" y="155.0" fill="#dce8d5" font-family="monospace" font-size="10">D4-0747ABFE3A</text></g>
<g><title>D4-08394FA826 · 长端粒相关的肿瘤与血管风险权衡</title><circle cx="230.0" cy="191.0" r="8" fill="#c8e2a9"/><text x="245.0" y="195.0" fill="#dce8d5" font-family="monospace" font-size="10">D4-08394FA826</text></g>
<g><title>D4-0847AC1163 · 低睾酮与低SHBG是否代表不同男性代谢状态</title><circle cx="230.0" cy="231.0" r="8" fill="#c8e2a9"/><text x="245.0" y="235.0" fill="#dce8d5" font-family="monospace" font-size="10">D4-0847AC1163</text></g>
<g><title>D4-16D206BA50 · 空气污染与肺功能遗传易感性的交互</title><circle cx="230.0" cy="271.0" r="8" fill="#c8e2a9"/><text x="245.0" y="275.0" fill="#dce8d5" font-family="monospace" font-size="10">D4-16D206BA50</text></g>
<g><title>D4-17A499D058 · 夜间噪声与睡眠脆弱性共同指向房颤</title><circle cx="230.0" cy="311.0" r="8" fill="#c8e2a9"/><text x="245.0" y="315.0" fill="#dce8d5" font-family="monospace" font-size="10">D4-17A499D058</text></g>
<g><title>D4-1E471250FB · 骨与肌肉衰退不同步的骨折路径</title><circle cx="230.0" cy="351.0" r="8" fill="#c8e2a9"/><text x="245.0" y="355.0" fill="#dce8d5" font-family="monospace" font-size="10">D4-1E471250FB</text></g>
<g><title>D4-1EAD2D482F · 肺功能下降与右心改变的先后关系</title><circle cx="230.0" cy="391.0" r="8" fill="#c8e2a9"/><text x="245.0" y="395.0" fill="#dce8d5" font-family="monospace" font-size="10">D4-1EAD2D482F</text></g>
<g><title>D4-352580B5E4 · repair — prospective thigh MFI and falls/function</title><circle cx="420.0" cy="431.0" r="8" fill="#c8e2a9"/><text x="435.0" y="435.0" fill="#dce8d5" font-family="monospace" font-size="10">D4-352580B5E4</text></g>
<g><title>D4-269012459E · Does posterior-thigh MFI add to thigh-muscle distribution for later falls?</title><circle cx="1370.0" cy="459.0" r="8" fill="#c8e2a9"/><text x="1385.0" y="463.0" fill="#dce8d5" font-family="monospace" font-size="10">D4-269012459E</text></g>
<g><title>D4-5195309D49 · Prospective muscle-fat signal and falls in UK Biobank</title><circle cx="420.0" cy="487.0" r="8" fill="#c8e2a9"/><text x="435.0" y="491.0" fill="#dce8d5" font-family="monospace" font-size="10">D4-5195309D49</text></g>
<g><title>D4-16AD8A1A2A · Prospective thigh muscle fat infiltration and falls-report risk in UK Biobank</title><circle cx="610.0" cy="487.0" r="8" fill="#c8e2a9"/><text x="625.0" y="491.0" fill="#dce8d5" font-family="monospace" font-size="10">D4-16AD8A1A2A</text></g>
<g><title>D4-C825872785 · does MFI add to thigh-muscle distribution for later falls?</title><circle cx="800.0" cy="487.0" r="8" fill="#c8e2a9"/><text x="815.0" y="491.0" fill="#dce8d5" font-family="monospace" font-size="10">D4-C825872785</text></g>
<g><title>D4-ADA0A35211 · does MFI add to thigh-muscle distribution for later falls?</title><circle cx="990.0" cy="487.0" r="8" fill="#c8e2a9"/><text x="1005.0" y="491.0" fill="#dce8d5" font-family="monospace" font-size="10">D4-ADA0A35211</text></g>
<g><title>D4-8B19BCA548 · Does posterior-thigh MFI add to thigh-muscle distribution for later falls?</title><circle cx="1180.0" cy="487.0" r="8" fill="#c8e2a9"/><text x="1195.0" y="491.0" fill="#dce8d5" font-family="monospace" font-size="10">D4-8B19BCA548</text></g>
<g><title>D4-44A49120FC · prespecified falls-burden secondary analysis</title><circle cx="1370.0" cy="487.0" r="8" fill="#c8e2a9"/><text x="1385.0" y="491.0" fill="#dce8d5" font-family="monospace" font-size="10">D4-44A49120FC</text></g>
<g><title>D4-1F11C24E00 · 内脏脂肪与肌肉浸润对应的两种风险</title><circle cx="230.0" cy="508.0" r="8" fill="#c8e2a9"/><text x="245.0" y="512.0" fill="#dce8d5" font-family="monospace" font-size="10">D4-1F11C24E00</text></g>
<g><title>D4-B407683053 · Does posterior-thigh MFI add to thigh-muscle distribution for later falls?</title><circle cx="1370.0" cy="515.0" r="8" fill="#c8e2a9"/><text x="1385.0" y="519.0" fill="#dce8d5" font-family="monospace" font-size="10">D4-B407683053</text></g>
<g><title>D4-66EC74DB01 · repair — prospective thigh MFI and falls/function</title><circle cx="420.0" cy="543.0" r="8" fill="#c8e2a9"/><text x="435.0" y="547.0" fill="#dce8d5" font-family="monospace" font-size="10">D4-66EC74DB01</text></g>
<g><title>D4-C0FA103AFB · repair — prospective thigh MFI and falls/function</title><circle cx="420.0" cy="571.0" r="8" fill="#c8e2a9"/><text x="435.0" y="575.0" fill="#dce8d5" font-family="monospace" font-size="10">D4-C0FA103AFB</text></g>
<g><title>D4-203A60B610 · CRP与GlycA不一致的炎症状态</title><circle cx="230.0" cy="611.0" r="8" fill="#c8e2a9"/><text x="245.0" y="615.0" fill="#dce8d5" font-family="monospace" font-size="10">D4-203A60B610</text></g>
<g><title>D4-24313D46CA · 脂肪分布与绝经后激素相关癌症的差异</title><circle cx="230.0" cy="651.0" r="8" fill="#c8e2a9"/><text x="245.0" y="655.0" fill="#dce8d5" font-family="monospace" font-size="10">D4-24313D46CA</text></g>
<g><title>D4-24A6840CD7 · 正常血糖下胰腺体积与脂肪的不同预警信息</title><circle cx="230.0" cy="691.0" r="8" fill="#c8e2a9"/><text x="245.0" y="695.0" fill="#dce8d5" font-family="monospace" font-size="10">D4-24A6840CD7</text></g>
<g><title>D4-317180CEFE · 高糖尿病遗传风险下的异位脂肪差异</title><circle cx="230.0" cy="731.0" r="8" fill="#c8e2a9"/><text x="245.0" y="735.0" fill="#dce8d5" font-family="monospace" font-size="10">D4-317180CEFE</text></g>
<g><title>D4-3B98A85D93 · 低血脂伴低白蛋白是否提示隐匿肝病</title><circle cx="230.0" cy="771.0" r="8" fill="#c8e2a9"/><text x="245.0" y="775.0" fill="#dce8d5" font-family="monospace" font-size="10">D4-3B98A85D93</text></g>
<g><title>D4-3D79C46556 · 早绝经与心脏重构是否独立于血压负荷</title><circle cx="230.0" cy="811.0" r="8" fill="#c8e2a9"/><text x="245.0" y="815.0" fill="#dce8d5" font-family="monospace" font-size="10">D4-3D79C46556</text></g>
<g><title>D4-7E457B201D · Prediagnosis physiologic reserve and competing mortality after colorectal cancer</title><circle cx="420.0" cy="851.0" r="8" fill="#c8e2a9"/><text x="435.0" y="855.0" fill="#dce8d5" font-family="monospace" font-size="10">D4-7E457B201D</text></g>
<g><title>D4-41A15B031F · 癌症确诊前储备与确诊后的非癌死亡</title><circle cx="230.0" cy="865.0" r="8" fill="#c8e2a9"/><text x="245.0" y="869.0" fill="#dce8d5" font-family="monospace" font-size="10">D4-41A15B031F</text></g>
<g><title>D4-BB4EFEE88B · Pre-diagnosis physiologic reserve and competing mortality after colorectal cancer</title><circle cx="420.0" cy="879.0" r="8" fill="#c8e2a9"/><text x="435.0" y="883.0" fill="#dce8d5" font-family="monospace" font-size="10">D4-BB4EFEE88B</text></g>
<g><title>D4-492D27A059 · 绝经后骨量与脂肪增加不同步</title><circle cx="230.0" cy="919.0" r="8" fill="#c8e2a9"/><text x="245.0" y="923.0" fill="#dce8d5" font-family="monospace" font-size="10">D4-492D27A059</text></g>
<g><title>D4-4A97E43953 · 脂肪分布与绝经后激素相关癌症的差异</title><circle cx="230.0" cy="959.0" r="8" fill="#c8e2a9"/><text x="245.0" y="963.0" fill="#dce8d5" font-family="monospace" font-size="10">D4-4A97E43953</text></g>
<g><title>D4-4E6F607EEC · 低血脂伴低白蛋白是否提示隐匿肝病</title><circle cx="230.0" cy="999.0" r="8" fill="#c8e2a9"/><text x="245.0" y="1003.0" fill="#dce8d5" font-family="monospace" font-size="10">D4-4E6F607EEC</text></g>
<g><title>D4-5170DA0390 · 相同炎症水平下的白细胞组成与感染结局</title><circle cx="230.0" cy="1039.0" r="8" fill="#c8e2a9"/><text x="245.0" y="1043.0" fill="#dce8d5" font-family="monospace" font-size="10">D4-5170DA0390</text></g>
<g><title>D4-5472767FC5 · 绝经后骨量与脂肪增加不同步</title><circle cx="230.0" cy="1079.0" r="8" fill="#c8e2a9"/><text x="245.0" y="1083.0" fill="#dce8d5" font-family="monospace" font-size="10">D4-5472767FC5</text></g>
<g><title>D4-557B47E225 · 支链氨基酸变化是否早于糖代谢恶化</title><circle cx="230.0" cy="1119.0" r="8" fill="#c8e2a9"/><text x="245.0" y="1123.0" fill="#dce8d5" font-family="monospace" font-size="10">D4-557B47E225</text></g>
<g><title>D4-5C93B9BA75 · 正常血糖下胰腺体积与脂肪的不同预警信息</title><circle cx="230.0" cy="1159.0" r="8" fill="#c8e2a9"/><text x="245.0" y="1163.0" fill="#dce8d5" font-family="monospace" font-size="10">D4-5C93B9BA75</text></g>
<g><title>D4-698B8EFD92 · 血糖升高伴体重下降的胰腺癌线索</title><circle cx="230.0" cy="1199.0" r="8" fill="#c8e2a9"/><text x="245.0" y="1203.0" fill="#dce8d5" font-family="monospace" font-size="10">D4-698B8EFD92</text></g>
<g><title>D4-716A28F338 · 支链氨基酸变化是否早于糖代谢恶化</title><circle cx="230.0" cy="1239.0" r="8" fill="#c8e2a9"/><text x="245.0" y="1243.0" fill="#dce8d5" font-family="monospace" font-size="10">D4-716A28F338</text></g>
<g><title>D4-75EADFFB3D · 房颤遗传风险与左房结构的不同组合</title><circle cx="230.0" cy="1279.0" r="8" fill="#c8e2a9"/><text x="245.0" y="1283.0" fill="#dce8d5" font-family="monospace" font-size="10">D4-75EADFFB3D</text></g>
<g><title>D4-7C93EACFDE · 肺功能下降与右心改变的先后关系</title><circle cx="230.0" cy="1319.0" r="8" fill="#c8e2a9"/><text x="245.0" y="1323.0" fill="#dce8d5" font-family="monospace" font-size="10">D4-7C93EACFDE</text></g>
<g><title>D4-5AE7841857 · repaired direction: MRI muscle fat infiltration and same-visit functional discordance</title><circle cx="420.0" cy="1359.0" r="8" fill="#c8e2a9"/><text x="435.0" y="1363.0" fill="#dce8d5" font-family="monospace" font-size="10">D4-5AE7841857</text></g>
<g><title>D4-80DF022525 · 肌肉量保留但肌力下降的风险来源</title><circle cx="230.0" cy="1373.0" r="8" fill="#c8e2a9"/><text x="245.0" y="1377.0" fill="#dce8d5" font-family="monospace" font-size="10">D4-80DF022525</text></g>
<g><title>D4-5E59DC91AE · repaired proposal: MRI thigh fat infiltration and same-visit functional limitation</title><circle cx="420.0" cy="1387.0" r="8" fill="#c8e2a9"/><text x="435.0" y="1391.0" fill="#dce8d5" font-family="monospace" font-size="10">D4-5E59DC91AE</text></g>
<g><title>D4-8355C8CAA8 · 乳腺癌遗传风险与绝经后激素背景</title><circle cx="230.0" cy="1427.0" r="8" fill="#c8e2a9"/><text x="245.0" y="1431.0" fill="#dce8d5" font-family="monospace" font-size="10">D4-8355C8CAA8</text></g>
<g><title>D4-2CD445A307 · UKB muscle quantity versus quality/function: critical alternative</title><circle cx="420.0" cy="1467.0" r="8" fill="#c8e2a9"/><text x="435.0" y="1471.0" fill="#dce8d5" font-family="monospace" font-size="10">D4-2CD445A307</text></g>
<g><title>D4-75861EB174 · Muscle quantity versus muscle quality for later mobility decline</title><circle cx="420.0" cy="1495.0" r="8" fill="#c8e2a9"/><text x="435.0" y="1499.0" fill="#dce8d5" font-family="monospace" font-size="10">D4-75861EB174</text></g>
<g><title>D4-854234041C · 肌肉量保留但肌力下降的风险来源</title><circle cx="230.0" cy="1509.0" r="8" fill="#c8e2a9"/><text x="245.0" y="1513.0" fill="#dce8d5" font-family="monospace" font-size="10">D4-854234041C</text></g>
<g><title>D4-90E8F092C6 · Seed 03 : prospective muscle-quality increment beyond thigh quantity</title><circle cx="420.0" cy="1523.0" r="8" fill="#c8e2a9"/><text x="435.0" y="1527.0" fill="#dce8d5" font-family="monospace" font-size="10">D4-90E8F092C6</text></g>
<g><title>D4-9308AFCA3B · Delivery-ready UKB MRI muscle-quality</title><circle cx="610.0" cy="1523.0" r="8" fill="#c8e2a9"/><text x="625.0" y="1527.0" fill="#dce8d5" font-family="monospace" font-size="10">D4-9308AFCA3B</text></g>
<g><title>D4-C371CC9AE1 · UKB seed 03: does muscle function and posterior thigh myosteatosis add information beyond thigh muscle quantity for future mobility decline or falls?</title><circle cx="420.0" cy="1551.0" r="8" fill="#c8e2a9"/><text x="435.0" y="1555.0" fill="#dce8d5" font-family="monospace" font-size="10">D4-C371CC9AE1</text></g>
<g><title>D4-8590CC7271 · 肺功能与全身储备不一致时的感染后结局</title><circle cx="230.0" cy="1591.0" r="8" fill="#c8e2a9"/><text x="245.0" y="1595.0" fill="#dce8d5" font-family="monospace" font-size="10">D4-8590CC7271</text></g>
<g><title>D4-87ABC18B0D · 冠心病遗传风险在不同脂蛋白背景下的表达</title><circle cx="230.0" cy="1631.0" r="8" fill="#c8e2a9"/><text x="245.0" y="1635.0" fill="#dce8d5" font-family="monospace" font-size="10">D4-87ABC18B0D</text></g>
<g><title>D4-99DC272992 · 内脏脂肪与肌肉浸润对应的两种风险</title><circle cx="230.0" cy="1671.0" r="8" fill="#c8e2a9"/><text x="245.0" y="1675.0" fill="#dce8d5" font-family="monospace" font-size="10">D4-99DC272992</text></g>
<g><title>D4-9D5C6E147A · 空气污染与肺功能遗传易感性的交互</title><circle cx="230.0" cy="1711.0" r="8" fill="#c8e2a9"/><text x="245.0" y="1715.0" fill="#dce8d5" font-family="monospace" font-size="10">D4-9D5C6E147A</text></g>
<g><title>D4-9F7529C72F · 房颤遗传风险与左房结构的不同组合</title><circle cx="230.0" cy="1751.0" r="8" fill="#c8e2a9"/><text x="245.0" y="1755.0" fill="#dce8d5" font-family="monospace" font-size="10">D4-9F7529C72F</text></g>
<g><title>D4-34C1EBF01F · repaired hypothesis: CRP-discordant GlycA and delayed infection admissions</title><circle cx="420.0" cy="1791.0" r="8" fill="#c8e2a9"/><text x="435.0" y="1795.0" fill="#dce8d5" font-family="monospace" font-size="10">D4-34C1EBF01F</text></g>
<g><title>D4-A2660746EC · CRP与GlycA不一致的炎症状态</title><circle cx="230.0" cy="1819.0" r="8" fill="#c8e2a9"/><text x="245.0" y="1823.0" fill="#dce8d5" font-family="monospace" font-size="10">D4-A2660746EC</text></g>
<g><title>D4-7012B20C34 · CRP-discordant GlycA, persistent inflammation and future infection</title><circle cx="420.0" cy="1819.0" r="8" fill="#c8e2a9"/><text x="435.0" y="1823.0" fill="#dce8d5" font-family="monospace" font-size="10">D4-7012B20C34</text></g>
<g><title>D4-AF20D48ACF · CRP-discordant GlycA, persistent inflammation and future infection</title><circle cx="420.0" cy="1847.0" r="8" fill="#c8e2a9"/><text x="435.0" y="1851.0" fill="#dce8d5" font-family="monospace" font-size="10">D4-AF20D48ACF</text></g>
<g><title>D4-350907854D · repaired proposal: prediagnostic host reserve and competing mortality after colorectal-cancer diagnosis</title><circle cx="420.0" cy="1887.0" r="8" fill="#c8e2a9"/><text x="435.0" y="1891.0" fill="#dce8d5" font-family="monospace" font-size="10">D4-350907854D</text></g>
<g><title>D4-94CAE2E124 · among incident C18-C20 cases, lower measured reserve at least two years before diagnosis is associated with greater five-year cumulative incidence of non-cancer death than CRC-spec</title><circle cx="990.0" cy="1915.0" r="8" fill="#c8e2a9"/><text x="1005.0" y="1919.0" fill="#dce8d5" font-family="monospace" font-size="10">D4-94CAE2E124</text></g>
<g><title>D4-A571401DF7 · 癌症确诊前储备与确诊后的非癌死亡</title><circle cx="230.0" cy="1918.5" r="8" fill="#c8e2a9"/><text x="245.0" y="1922.5" fill="#dce8d5" font-family="monospace" font-size="10">D4-A571401DF7</text></g>
<g><title>D4-4AF194FF2A · Prediagnostic reserve and competing mortality after colorectal cancer</title><circle cx="800.0" cy="1929.0" r="8" fill="#c8e2a9"/><text x="815.0" y="1933.0" fill="#dce8d5" font-family="monospace" font-size="10">D4-4AF194FF2A</text></g>
<g><title>D4-B2B591BB39 · follow-up/outcome audit</title><circle cx="990.0" cy="1943.0" r="8" fill="#c8e2a9"/><text x="1005.0" y="1947.0" fill="#dce8d5" font-family="monospace" font-size="10">D4-B2B591BB39</text></g>
<g><title>D4-C77EBFA8CF · pre-diagnostic host reserve and competing mortality after incident colorectal cancer</title><circle cx="420.0" cy="1950.0" r="8" fill="#c8e2a9"/><text x="435.0" y="1954.0" fill="#dce8d5" font-family="monospace" font-size="10">D4-C77EBFA8CF</text></g>
<g><title>D4-0C96B9B593 · incident colorectal-cancer competing-risk reserve study — delivery repair</title><circle cx="610.0" cy="1950.0" r="8" fill="#c8e2a9"/><text x="625.0" y="1954.0" fill="#dce8d5" font-family="monospace" font-size="10">D4-0C96B9B593</text></g>
<g><title>D4-4E7478ABEC · incident colorectal-cancer competing-risk reserve study</title><circle cx="800.0" cy="1971.0" r="8" fill="#c8e2a9"/><text x="815.0" y="1975.0" fill="#dce8d5" font-family="monospace" font-size="10">D4-4E7478ABEC</text></g>
<g><title>D4-AA177147AD · 骨与肌肉衰退不同步的骨折路径</title><circle cx="230.0" cy="2011.0" r="8" fill="#c8e2a9"/><text x="245.0" y="2015.0" fill="#dce8d5" font-family="monospace" font-size="10">D4-AA177147AD</text></g>
<g><title>D4-AA3D8BA64A · 早绝经与心脏重构是否独立于血压负荷</title><circle cx="230.0" cy="2051.0" r="8" fill="#c8e2a9"/><text x="245.0" y="2055.0" fill="#dce8d5" font-family="monospace" font-size="10">D4-AA3D8BA64A</text></g>
<g><title>D4-B08EC6BC5A · 夜间噪声与睡眠脆弱性共同指向房颤</title><circle cx="230.0" cy="2091.0" r="8" fill="#c8e2a9"/><text x="245.0" y="2095.0" fill="#dce8d5" font-family="monospace" font-size="10">D4-B08EC6BC5A</text></g>
<g><title>D4-CF2C3A64E4 · 低睾酮与低SHBG是否代表不同男性代谢状态</title><circle cx="230.0" cy="2131.0" r="8" fill="#c8e2a9"/><text x="245.0" y="2135.0" fill="#dce8d5" font-family="monospace" font-size="10">D4-CF2C3A64E4</text></g>
<g><title>D4-D249800B11 · 肺功能与全身储备不一致时的感染后结局</title><circle cx="230.0" cy="2171.0" r="8" fill="#c8e2a9"/><text x="245.0" y="2175.0" fill="#dce8d5" font-family="monospace" font-size="10">D4-D249800B11</text></g>
<g><title>D4-D4F9C3CA57 · 肝脂肪与胰腺脂肪不一致的糖代谢走向</title><circle cx="230.0" cy="2211.0" r="8" fill="#c8e2a9"/><text x="245.0" y="2215.0" fill="#dce8d5" font-family="monospace" font-size="10">D4-D4F9C3CA57</text></g>
<g><title>D4-D63136C14D · 绝经相关脂蛋白变化是否超出体重变化</title><circle cx="230.0" cy="2251.0" r="8" fill="#c8e2a9"/><text x="245.0" y="2255.0" fill="#dce8d5" font-family="monospace" font-size="10">D4-D63136C14D</text></g>
<g><title>D4-D87F208FC5 · 血细胞变化指向隐匿失血还是造血异常</title><circle cx="230.0" cy="2291.0" r="8" fill="#c8e2a9"/><text x="245.0" y="2295.0" fill="#dce8d5" font-family="monospace" font-size="10">D4-D87F208FC5</text></g>
<g><title>D4-DCB6810CF3 · 肝脂肪与胰腺脂肪不一致的糖代谢走向</title><circle cx="230.0" cy="2331.0" r="8" fill="#c8e2a9"/><text x="245.0" y="2335.0" fill="#dce8d5" font-family="monospace" font-size="10">D4-DCB6810CF3</text></g>
<g><title>D4-DCEF26EFF8 · 乳腺癌遗传风险与绝经后激素背景</title><circle cx="230.0" cy="2371.0" r="8" fill="#c8e2a9"/><text x="245.0" y="2375.0" fill="#dce8d5" font-family="monospace" font-size="10">D4-DCEF26EFF8</text></g>
<g><title>D4-DCF5BD6B00 · 高糖尿病遗传风险下的异位脂肪差异</title><circle cx="230.0" cy="2411.0" r="8" fill="#c8e2a9"/><text x="245.0" y="2415.0" fill="#dce8d5" font-family="monospace" font-size="10">D4-DCF5BD6B00</text></g>
<g><title>D4-E153C7E676 · 冠心病遗传风险在不同脂蛋白背景下的表达</title><circle cx="230.0" cy="2451.0" r="8" fill="#c8e2a9"/><text x="245.0" y="2455.0" fill="#dce8d5" font-family="monospace" font-size="10">D4-E153C7E676</text></g>
<g><title>D4-F29E87F047 · 相同炎症水平下的白细胞组成与感染结局</title><circle cx="230.0" cy="2491.0" r="8" fill="#c8e2a9"/><text x="245.0" y="2495.0" fill="#dce8d5" font-family="monospace" font-size="10">D4-F29E87F047</text></g>
<g><title>D4-F3F772ED7F · 血糖升高伴体重下降的胰腺癌线索</title><circle cx="230.0" cy="2531.0" r="8" fill="#c8e2a9"/><text x="245.0" y="2535.0" fill="#dce8d5" font-family="monospace" font-size="10">D4-F3F772ED7F</text></g>
<g><title>D4-740B305BE9 · Method comparison for UKB seed 23</title><circle cx="420.0" cy="2571.0" r="8" fill="#c8e2a9"/><text x="435.0" y="2575.0" fill="#dce8d5" font-family="monospace" font-size="10">D4-740B305BE9</text></g>
<g><title>D4-A4CD01819F · Repaired UKB seed 23: repeated CBC discordance and cancer-type-specific prediagnostic risk</title><circle cx="420.0" cy="2599.0" r="8" fill="#c8e2a9"/><text x="435.0" y="2603.0" fill="#dce8d5" font-family="monospace" font-size="10">D4-A4CD01819F</text></g>
<g><title>D4-5F083FDDD9 · UKB seed-39 comparison branch: does a low-ApoB/low-albumin pattern mark near-term liver cancer rather than generic illness?</title><circle cx="1180.0" cy="2627.0" r="8" fill="#c8e2a9"/><text x="1195.0" y="2631.0" fill="#dce8d5" font-family="monospace" font-size="10">D4-5F083FDDD9</text></g>
<g><title>D4-0EC3C1EEE2 · Corrected UKB cancer-type hypothesis with metabolic/liver restart audit</title><circle cx="1560.0" cy="2655.0" r="8" fill="#c8e2a9"/><text x="1575.0" y="2659.0" fill="#dce8d5" font-family="monospace" font-size="10">D4-0EC3C1EEE2</text></g>
<g><title>D4-0E91D0A62C · UKB CBC cancer-type contrast: first-CBC estimand with explicit timing and ascertainment falsification</title><circle cx="990.0" cy="2670.2" r="8" fill="#c8e2a9"/><text x="1005.0" y="2674.2" fill="#dce8d5" font-family="monospace" font-size="10">D4-0E91D0A62C</text></g>
<g><title>D4-CF50AB76B2 · Source-robust, calibrated CBC profile contrast for CRC versus other primary cancers</title><circle cx="2130.0" cy="2683.0" r="8" fill="#c8e2a9"/><text x="2145.0" y="2687.0" fill="#dce8d5" font-family="monospace" font-size="10">D4-CF50AB76B2</text></g>
<g><title>D4-0AE8F1E3ED · Absolute-risk CBC cancer-type contrast under generic burden and source ascertainment</title><circle cx="1940.0" cy="2697.0" r="8" fill="#c8e2a9"/><text x="1955.0" y="2701.0" fill="#dce8d5" font-family="monospace" font-size="10">D4-0AE8F1E3ED</text></g>
<g><title>D4-D851F9EA5B · Source-robust delayed CBC cancer-type contrast under ascertainment falsification</title><circle cx="2130.0" cy="2711.0" r="8" fill="#c8e2a9"/><text x="2145.0" y="2715.0" fill="#dce8d5" font-family="monospace" font-size="10">D4-D851F9EA5B</text></g>
<g><title>D4-E7E8AC6F6D · UKB CBC cancer-type contrast: same-table ascertainment bridge and selection stress test</title><circle cx="1180.0" cy="2713.3" r="8" fill="#c8e2a9"/><text x="1195.0" y="2717.3" fill="#dce8d5" font-family="monospace" font-size="10">D4-E7E8AC6F6D</text></g>
<g><title>D4-F94FB6B46C · UKB CBC cancer-type contrast: absolute-risk boundary for timing and clinical selection</title><circle cx="1370.0" cy="2713.3" r="8" fill="#c8e2a9"/><text x="1385.0" y="2717.3" fill="#dce8d5" font-family="monospace" font-size="10">D4-F94FB6B46C</text></g>
<g><title>D4-44878BB84B · CBC cancer-type contrast under source-dependent ascertainment</title><circle cx="1560.0" cy="2718.0" r="8" fill="#c8e2a9"/><text x="1575.0" y="2722.0" fill="#dce8d5" font-family="monospace" font-size="10">D4-44878BB84B</text></g>
<g><title>D4-A63BF8F2BB · CBC cancer-type contrast under source-dependent ascertainment</title><circle cx="1750.0" cy="2718.0" r="8" fill="#c8e2a9"/><text x="1765.0" y="2722.0" fill="#dce8d5" font-family="monospace" font-size="10">D4-A63BF8F2BB</text></g>
<g><title>D4-0CC67A027B · CBC cancer-type contrast after generic burden and observation selection</title><circle cx="1940.0" cy="2739.0" r="8" fill="#c8e2a9"/><text x="1955.0" y="2743.0" fill="#dce8d5" font-family="monospace" font-size="10">D4-0CC67A027B</text></g>
<g><title>D4-BA94FC0912 · UKB CBC specificity versus generic pre-diagnostic observation</title><circle cx="1560.0" cy="2767.0" r="8" fill="#c8e2a9"/><text x="1575.0" y="2771.0" fill="#dce8d5" font-family="monospace" font-size="10">D4-BA94FC0912</text></g>
<g><title>D4-25C0150498 · first-CBC cancer-type signal versus repeat-measurement selection</title><circle cx="800.0" cy="2767.4" r="8" fill="#c8e2a9"/><text x="815.0" y="2771.4" fill="#dce8d5" font-family="monospace" font-size="10">D4-25C0150498</text></g>
<g><title>D4-4E684892F0 · UKB metabolic mismatch and pancreatic-cancer timing</title><circle cx="990.0" cy="2795.0" r="8" fill="#c8e2a9"/><text x="1005.0" y="2799.0" fill="#dce8d5" font-family="monospace" font-size="10">D4-4E684892F0</text></g>
<g><title>D4-F78069665A · 血细胞变化指向隐匿失血还是造血异常</title><circle cx="230.0" cy="2813.2" r="8" fill="#c8e2a9"/><text x="245.0" y="2817.2" fill="#dce8d5" font-family="monospace" font-size="10">D4-F78069665A</text></g>
<g><title>D4-65973EE68F · Calendar-stable CBC cancer-type contrast: a competing-burden and ascertainment stress test</title><circle cx="1180.0" cy="2823.0" r="8" fill="#c8e2a9"/><text x="1195.0" y="2827.0" fill="#dce8d5" font-family="monospace" font-size="10">D4-65973EE68F</text></g>
<g><title>D4-C2D64E3816 · CBC discordance: a delayed first-CBC cancer-type contrast, with repeat observation as a selection stress test</title><circle cx="990.0" cy="2837.0" r="8" fill="#c8e2a9"/><text x="1005.0" y="2841.0" fill="#dce8d5" font-family="monospace" font-size="10">D4-C2D64E3816</text></g>
<g><title>D4-6BA8E42D55 · Lineage-aware CBC cancer-type contrast beyond ascertainment</title><circle cx="1180.0" cy="2851.0" r="8" fill="#c8e2a9"/><text x="1195.0" y="2855.0" fill="#dce8d5" font-family="monospace" font-size="10">D4-6BA8E42D55</text></g>
<g><title>D4-A54517DA03 · Method comparison for UKB seed 23</title><circle cx="420.0" cy="2872.1" r="8" fill="#c8e2a9"/><text x="435.0" y="2876.1" fill="#dce8d5" font-family="monospace" font-size="10">D4-A54517DA03</text></g>
<g><title>D4-D43D38E7CE · Method comparison for UKB seed 23</title><circle cx="610.0" cy="2872.1" r="8" fill="#c8e2a9"/><text x="625.0" y="2876.1" fill="#dce8d5" font-family="monospace" font-size="10">D4-D43D38E7CE</text></g>
<g><title>D4-2AA9F49DAF · CBC discordance, timing, and repeat-measurement selection</title><circle cx="800.0" cy="2879.0" r="8" fill="#c8e2a9"/><text x="815.0" y="2883.0" fill="#dce8d5" font-family="monospace" font-size="10">D4-2AA9F49DAF</text></g>
<g><title>D4-6B2FE81650 · UKB CBC discordance</title><circle cx="800.0" cy="2907.0" r="8" fill="#c8e2a9"/><text x="815.0" y="2911.0" fill="#dce8d5" font-family="monospace" font-size="10">D4-6B2FE81650</text></g>
<g><title>D4-94616745B9 · CBC discordance, timing, and repeat-measurement selection</title><circle cx="800.0" cy="2935.0" r="8" fill="#c8e2a9"/><text x="815.0" y="2939.0" fill="#dce8d5" font-family="monospace" font-size="10">D4-94616745B9</text></g>
<g><title>D4-B1D3D86DD0 · Method comparison for UKB seed 23</title><circle cx="420.0" cy="2963.0" r="8" fill="#c8e2a9"/><text x="435.0" y="2967.0" fill="#dce8d5" font-family="monospace" font-size="10">D4-B1D3D86DD0</text></g>
<g><title>D4-0A9AC46BDC · Source-concordant absolute CBC cancer-type contrast</title><circle cx="610.0" cy="2991.0" r="8" fill="#c8e2a9"/><text x="625.0" y="2995.0" fill="#dce8d5" font-family="monospace" font-size="10">D4-0A9AC46BDC</text></g>
<g><title>D4-8C56D458C3 · Source-concordant absolute CBC cancer-type contrast</title><circle cx="610.0" cy="3019.0" r="8" fill="#c8e2a9"/><text x="625.0" y="3023.0" fill="#dce8d5" font-family="monospace" font-size="10">D4-8C56D458C3</text></g>
<g><title>D4-BA073B74EC · CBC cancer-type ordering boundary after delayed entry</title><circle cx="610.0" cy="3047.0" r="8" fill="#c8e2a9"/><text x="625.0" y="3051.0" fill="#dce8d5" font-family="monospace" font-size="10">D4-BA073B74EC</text></g>
<g><title>D4-CD25D7EDFD · Repaired UKB seed 23: repeated CBC discordance and cancer-site risk</title><circle cx="420.0" cy="3061.0" r="8" fill="#c8e2a9"/><text x="435.0" y="3065.0" fill="#dce8d5" font-family="monospace" font-size="10">D4-CD25D7EDFD</text></g>
<g><title>D4-D6A78EAA0D · CBC cancer-type ordering boundary after delayed entry</title><circle cx="610.0" cy="3075.0" r="8" fill="#c8e2a9"/><text x="625.0" y="3079.0" fill="#dce8d5" font-family="monospace" font-size="10">D4-D6A78EAA0D</text></g>
<g><title>D4-F396788CDB · Source-concordant absolute CBC cancer-type contrast</title><circle cx="610.0" cy="3103.0" r="8" fill="#c8e2a9"/><text x="625.0" y="3107.0" fill="#dce8d5" font-family="monospace" font-size="10">D4-F396788CDB</text></g>
<g><title>D4-F4E4D8D027 · Source-robust delayed CBC cancer-type contrast</title><circle cx="610.0" cy="3131.0" r="8" fill="#c8e2a9"/><text x="625.0" y="3135.0" fill="#dce8d5" font-family="monospace" font-size="10">D4-F4E4D8D027</text></g>
<g><title>D4-FB6AB1FB5C · 长端粒相关的肿瘤与血管风险权衡</title><circle cx="230.0" cy="3171.0" r="8" fill="#c8e2a9"/><text x="245.0" y="3175.0" fill="#dce8d5" font-family="monospace" font-size="10">D4-FB6AB1FB5C</text></g>
<g><title>D4-E678398A21 · telomere rival stress test</title><circle cx="420.0" cy="3171.0" r="8" fill="#c8e2a9"/><text x="435.0" y="3175.0" fill="#dce8d5" font-family="monospace" font-size="10">D4-E678398A21</text></g>
</svg>
